<mxfile host="app.diagrams.net" modified="2024-05-12T17:55:45.126Z" agent="Mozilla/5.0 (Windows NT 10.0; Win64; x64; rv:125.0) Gecko/20100101 Firefox/125.0" etag="P5zZDFeQ0G0Orkg_zoRr" version="24.3.1" type="github">
  <diagram name="PÃ¡gina-1" id="DZcBgJ-1E6zxFlGNOkJr">
    <mxGraphModel dx="879" dy="440" grid="1" gridSize="10" guides="1" tooltips="1" connect="1" arrows="1" fold="1" page="1" pageScale="1" pageWidth="827" pageHeight="1169" math="0" shadow="0">
      <root>
        <mxCell id="0" />
        <mxCell id="1" parent="0" />
        <mxCell id="l0mET7hSXXN5ccjDcdBl-3" value="" style="edgeStyle=orthogonalEdgeStyle;rounded=0;orthogonalLoop=1;jettySize=auto;html=1;" edge="1" parent="1" source="l0mET7hSXXN5ccjDcdBl-1" target="l0mET7hSXXN5ccjDcdBl-2">
          <mxGeometry relative="1" as="geometry" />
        </mxCell>
        <mxCell id="l0mET7hSXXN5ccjDcdBl-1" value="Inicio" style="strokeWidth=2;html=1;shape=mxgraph.flowchart.start_1;whiteSpace=wrap;" vertex="1" parent="1">
          <mxGeometry x="364" y="10" width="100" height="60" as="geometry" />
        </mxCell>
        <mxCell id="l0mET7hSXXN5ccjDcdBl-5" value="" style="edgeStyle=orthogonalEdgeStyle;rounded=0;orthogonalLoop=1;jettySize=auto;html=1;" edge="1" parent="1" source="l0mET7hSXXN5ccjDcdBl-2" target="l0mET7hSXXN5ccjDcdBl-4">
          <mxGeometry relative="1" as="geometry" />
        </mxCell>
        <mxCell id="l0mET7hSXXN5ccjDcdBl-2" value="suma = 0" style="shape=parallelogram;html=1;strokeWidth=2;perimeter=parallelogramPerimeter;whiteSpace=wrap;rounded=1;arcSize=12;size=0.23;" vertex="1" parent="1">
          <mxGeometry x="364" y="110" width="100" height="60" as="geometry" />
        </mxCell>
        <mxCell id="l0mET7hSXXN5ccjDcdBl-10" style="edgeStyle=orthogonalEdgeStyle;rounded=0;orthogonalLoop=1;jettySize=auto;html=1;entryX=0;entryY=0.5;entryDx=0;entryDy=0;" edge="1" parent="1" source="l0mET7hSXXN5ccjDcdBl-4" target="l0mET7hSXXN5ccjDcdBl-6">
          <mxGeometry relative="1" as="geometry">
            <Array as="points">
              <mxPoint x="344" y="260" />
              <mxPoint x="344" y="375" />
            </Array>
          </mxGeometry>
        </mxCell>
        <mxCell id="l0mET7hSXXN5ccjDcdBl-11" style="edgeStyle=orthogonalEdgeStyle;rounded=0;orthogonalLoop=1;jettySize=auto;html=1;entryX=1;entryY=0.5;entryDx=0;entryDy=0;" edge="1" parent="1" source="l0mET7hSXXN5ccjDcdBl-4" target="l0mET7hSXXN5ccjDcdBl-6">
          <mxGeometry relative="1" as="geometry">
            <Array as="points">
              <mxPoint x="484" y="260" />
              <mxPoint x="484" y="375" />
            </Array>
          </mxGeometry>
        </mxCell>
        <mxCell id="l0mET7hSXXN5ccjDcdBl-4" value="n != 0" style="strokeWidth=2;html=1;shape=mxgraph.flowchart.decision;whiteSpace=wrap;" vertex="1" parent="1">
          <mxGeometry x="364" y="210" width="100" height="100" as="geometry" />
        </mxCell>
        <mxCell id="l0mET7hSXXN5ccjDcdBl-9" value="" style="edgeStyle=orthogonalEdgeStyle;rounded=0;orthogonalLoop=1;jettySize=auto;html=1;" edge="1" parent="1" source="l0mET7hSXXN5ccjDcdBl-6" target="l0mET7hSXXN5ccjDcdBl-8">
          <mxGeometry relative="1" as="geometry" />
        </mxCell>
        <mxCell id="l0mET7hSXXN5ccjDcdBl-6" value="&lt;div&gt;suma += n % 2&lt;/div&gt;&lt;div&gt;n /= 10&lt;br&gt;&lt;/div&gt;" style="rounded=1;whiteSpace=wrap;html=1;absoluteArcSize=1;arcSize=14;strokeWidth=2;" vertex="1" parent="1">
          <mxGeometry x="364" y="350" width="100" height="50" as="geometry" />
        </mxCell>
        <mxCell id="l0mET7hSXXN5ccjDcdBl-13" value="" style="edgeStyle=orthogonalEdgeStyle;rounded=0;orthogonalLoop=1;jettySize=auto;html=1;" edge="1" parent="1" source="l0mET7hSXXN5ccjDcdBl-8" target="l0mET7hSXXN5ccjDcdBl-12">
          <mxGeometry relative="1" as="geometry" />
        </mxCell>
        <mxCell id="l0mET7hSXXN5ccjDcdBl-8" value="suma" style="strokeWidth=2;html=1;shape=mxgraph.flowchart.display;whiteSpace=wrap;" vertex="1" parent="1">
          <mxGeometry x="364" y="440" width="100" height="60" as="geometry" />
        </mxCell>
        <mxCell id="l0mET7hSXXN5ccjDcdBl-12" value="Fin" style="strokeWidth=2;html=1;shape=mxgraph.flowchart.terminator;whiteSpace=wrap;" vertex="1" parent="1">
          <mxGeometry x="364" y="540" width="100" height="60" as="geometry" />
        </mxCell>
      </root>
    </mxGraphModel>
  </diagram>
</mxfile>
